<svg xmlns="http://www.w3.org/2000/svg" xmlns:xlink="http://www.w3.org/1999/xlink" width="2000" zoomAndPan="magnify" viewBox="0 0 1500 1499.999933" height="2000" preserveAspectRatio="xMidYMid meet" version="1.0"><defs><clipPath id="f4c9baf77e"><path d="M 633.589844 601.566406 L 936.589844 601.566406 L 936.589844 934.566406 L 633.589844 934.566406 Z M 633.589844 601.566406 " clip-rule="nonzero"/></clipPath></defs><g clip-path="url(#f4c9baf77e)"><path fill="#ff1cf7" d="M 817.132812 934.28125 L 753.257812 934.28125 L 753.257812 883.179688 L 817.128906 883.179688 C 854.804688 883.179688 885.453125 852.539062 885.453125 814.863281 C 885.453125 777.1875 854.804688 746.53125 817.128906 746.53125 L 748.808594 746.53125 C 734.695312 746.53125 723.261719 735.089844 723.261719 720.984375 L 723.261719 695.4375 L 817.132812 695.4375 C 842.453125 695.4375 865.90625 703.414062 885.246094 716.90625 C 883.125 681.082031 853.488281 652.664062 817.132812 652.664062 L 753.257812 652.664062 C 715.582031 652.664062 684.933594 683.316406 684.933594 720.988281 C 684.933594 758.664062 715.582031 789.324219 753.257812 789.324219 L 821.578125 789.324219 C 835.691406 789.324219 847.125 800.761719 847.125 814.867188 L 847.125 840.414062 L 753.265625 840.414062 C 727.945312 840.414062 704.488281 832.4375 685.148438 818.945312 C 687.269531 854.769531 716.90625 883.1875 753.265625 883.1875 L 753.265625 934.28125 C 709.585938 934.28125 671.308594 910.710938 650.488281 875.617188 C 635.417969 850.222656 651.867188 818.472656 680.132812 815.183594 C 652.023438 793.324219 633.839844 759.273438 633.839844 720.984375 C 633.839844 655.136719 687.414062 601.566406 753.265625 601.566406 L 817.140625 601.566406 C 860.824219 601.566406 899.097656 625.132812 919.917969 660.226562 C 934.980469 685.621094 918.535156 717.375 890.269531 720.660156 C 918.371094 742.527344 936.550781 776.582031 936.550781 814.867188 C 936.550781 880.714844 882.988281 934.28125 817.132812 934.28125 Z M 817.132812 934.28125 " fill-opacity="1" fill-rule="nonzero"/></g></svg>
