<svg xmlns="http://www.w3.org/2000/svg" xmlns:xlink="http://www.w3.org/1999/xlink" width="2000" zoomAndPan="magnify" viewBox="0 0 1500 1499.999933" height="2000" preserveAspectRatio="xMidYMid meet" version="1.0"><defs><g/><clipPath id="099d990d34"><path d="M 598.394531 452.648438 L 901.394531 452.648438 L 901.394531 785.648438 L 598.394531 785.648438 Z M 598.394531 452.648438 " clip-rule="nonzero"/></clipPath><clipPath id="ad0aa8ba20"><rect x="0" width="820" y="0" height="136"/></clipPath><clipPath id="a493b68e5f"><rect x="0" width="480" y="0" height="41"/></clipPath></defs><g clip-path="url(#099d990d34)"><path fill="#f09c10" d="M 781.9375 785.363281 L 718.058594 785.363281 L 718.058594 734.261719 L 781.929688 734.261719 C 819.605469 734.261719 850.253906 703.621094 850.253906 665.945312 C 850.253906 628.269531 819.605469 597.613281 781.929688 597.613281 L 713.609375 597.613281 C 699.496094 597.613281 688.0625 586.171875 688.0625 572.066406 L 688.0625 546.519531 L 781.9375 546.519531 C 807.253906 546.519531 830.707031 554.496094 850.046875 567.988281 C 847.925781 532.167969 818.289062 503.746094 781.9375 503.746094 L 718.058594 503.746094 C 680.382812 503.746094 649.734375 534.398438 649.734375 572.074219 C 649.734375 609.75 680.382812 640.40625 718.058594 640.40625 L 786.378906 640.40625 C 800.492188 640.40625 811.925781 651.847656 811.925781 665.953125 L 811.925781 691.496094 L 718.066406 691.496094 C 692.746094 691.496094 669.289062 683.523438 649.949219 670.027344 C 652.070312 705.851562 681.707031 734.269531 718.066406 734.269531 L 718.066406 785.363281 C 674.386719 785.363281 636.109375 761.792969 615.289062 726.699219 C 600.21875 701.304688 616.667969 669.554688 644.933594 666.269531 C 616.824219 644.40625 598.640625 610.355469 598.640625 572.066406 C 598.640625 506.21875 652.214844 452.648438 718.066406 452.648438 L 781.941406 452.648438 C 825.625 452.648438 863.898438 476.21875 884.71875 511.308594 C 899.785156 536.703125 883.335938 568.457031 855.070312 571.742188 C 883.171875 593.609375 901.355469 627.664062 901.355469 665.953125 C 901.355469 731.796875 847.789062 785.363281 781.9375 785.363281 Z M 781.9375 785.363281 " fill-opacity="1" fill-rule="nonzero"/></g><g transform="matrix(1, 0, 0, 1, 345, 857)"><g clip-path="url(#ad0aa8ba20)"><g fill="#ffffff" fill-opacity="1"><g transform="translate(2.054788, 105.377065)"><g><path d="M 34.0625 1.09375 C 28.144531 1.09375 22.429688 0.253906 16.921875 -1.421875 C 11.410156 -3.097656 7.046875 -5.328125 3.828125 -8.109375 L 8.765625 -19.171875 C 11.898438 -16.679688 15.75 -14.648438 20.3125 -13.078125 C 24.875 -11.515625 29.457031 -10.734375 34.0625 -10.734375 C 39.757812 -10.734375 44.007812 -11.644531 46.8125 -13.46875 C 49.625 -15.289062 51.03125 -17.703125 51.03125 -20.703125 C 51.03125 -22.890625 50.242188 -24.691406 48.671875 -26.109375 C 47.109375 -27.535156 45.117188 -28.648438 42.703125 -29.453125 C 40.296875 -30.265625 37.015625 -31.179688 32.859375 -32.203125 C 27.015625 -33.585938 22.285156 -34.972656 18.671875 -36.359375 C 15.054688 -37.742188 11.953125 -39.914062 9.359375 -42.875 C 6.765625 -45.832031 5.46875 -49.832031 5.46875 -54.875 C 5.46875 -59.101562 6.617188 -62.953125 8.921875 -66.421875 C 11.222656 -69.890625 14.691406 -72.644531 19.328125 -74.6875 C 23.960938 -76.726562 29.640625 -77.75 36.359375 -77.75 C 41.035156 -77.75 45.632812 -77.164062 50.15625 -76 C 54.6875 -74.832031 58.59375 -73.15625 61.875 -70.96875 L 57.390625 -59.90625 C 54.023438 -61.875 50.515625 -63.367188 46.859375 -64.390625 C 43.210938 -65.410156 39.675781 -65.921875 36.25 -65.921875 C 30.625 -65.921875 26.441406 -64.972656 23.703125 -63.078125 C 20.972656 -61.179688 19.609375 -58.664062 19.609375 -55.53125 C 19.609375 -53.332031 20.390625 -51.539062 21.953125 -50.15625 C 23.523438 -48.769531 25.515625 -47.675781 27.921875 -46.875 C 30.335938 -46.070312 33.625 -45.160156 37.78125 -44.140625 C 43.476562 -42.816406 48.148438 -41.441406 51.796875 -40.015625 C 55.453125 -38.597656 58.570312 -36.425781 61.15625 -33.5 C 63.75 -30.582031 65.046875 -26.644531 65.046875 -21.6875 C 65.046875 -17.445312 63.894531 -13.609375 61.59375 -10.171875 C 59.300781 -6.742188 55.816406 -4.007812 51.140625 -1.96875 C 46.472656 0.0703125 40.78125 1.09375 34.0625 1.09375 Z M 34.0625 1.09375 "/></g></g></g><g fill="#ffffff" fill-opacity="1"><g transform="translate(81.781375, 105.377065)"><g><path d="M 25.84375 -64.609375 L 0.4375 -64.609375 L 0.4375 -76.65625 L 65.484375 -76.65625 L 65.484375 -64.609375 L 40.078125 -64.609375 L 40.078125 0 L 25.84375 0 Z M 25.84375 -64.609375 "/></g></g></g><g fill="#ffffff" fill-opacity="1"><g transform="translate(158.551213, 105.377065)"><g><path d="M 60.015625 -17.734375 L 21.6875 -17.734375 L 14.125 0 L -0.546875 0 L 33.953125 -76.65625 L 47.96875 -76.65625 L 82.578125 0 L 67.6875 0 Z M 55.3125 -28.90625 L 40.84375 -62.421875 L 26.5 -28.90625 Z M 55.3125 -28.90625 "/></g></g></g><g fill="#ffffff" fill-opacity="1"><g transform="translate(251.418908, 105.377065)"><g><path d="M 64.609375 -39.859375 C 68.847656 -38.472656 72.207031 -36.15625 74.6875 -32.90625 C 77.164062 -29.65625 78.40625 -25.625 78.40625 -20.8125 C 78.40625 -14.164062 75.847656 -9.035156 70.734375 -5.421875 C 65.628906 -1.804688 58.1875 0 48.40625 0 L 10.296875 0 L 10.296875 -76.65625 L 46.21875 -76.65625 C 55.269531 -76.65625 62.238281 -74.882812 67.125 -71.34375 C 72.019531 -67.800781 74.46875 -62.929688 74.46875 -56.734375 C 74.46875 -52.929688 73.59375 -49.566406 71.84375 -46.640625 C 70.09375 -43.722656 67.679688 -41.460938 64.609375 -39.859375 Z M 24.53125 -65.484375 L 24.53125 -44.359375 L 44.6875 -44.359375 C 49.644531 -44.359375 53.457031 -45.25 56.125 -47.03125 C 58.789062 -48.820312 60.125 -51.4375 60.125 -54.875 C 60.125 -58.375 58.789062 -61.015625 56.125 -62.796875 C 53.457031 -64.585938 49.644531 -65.484375 44.6875 -65.484375 Z M 47.53125 -11.171875 C 58.550781 -11.171875 64.0625 -14.859375 64.0625 -22.234375 C 64.0625 -29.609375 58.550781 -33.296875 47.53125 -33.296875 L 24.53125 -33.296875 L 24.53125 -11.171875 Z M 47.53125 -11.171875 "/></g></g></g><g fill="#ffffff" fill-opacity="1"><g transform="translate(345.600724, 105.377065)"><g><path d="M 10.296875 -76.65625 L 24.53125 -76.65625 L 24.53125 -12.046875 L 64.609375 -12.046875 L 64.609375 0 L 10.296875 0 Z M 10.296875 -76.65625 "/></g></g></g><g fill="#ffffff" fill-opacity="1"><g transform="translate(422.042022, 105.377065)"><g><path d="M 67.796875 -11.9375 L 67.796875 0 L 10.296875 0 L 10.296875 -76.65625 L 66.25 -76.65625 L 66.25 -64.71875 L 24.53125 -64.71875 L 24.53125 -44.796875 L 61.546875 -44.796875 L 61.546875 -33.078125 L 24.53125 -33.078125 L 24.53125 -11.9375 Z M 67.796875 -11.9375 "/></g></g></g><g fill="#ffffff" fill-opacity="1"><g transform="translate(506.258491, 105.377065)"><g><path d="M 10.296875 -76.65625 L 24.53125 -76.65625 L 24.53125 -12.046875 L 64.609375 -12.046875 L 64.609375 0 L 10.296875 0 Z M 10.296875 -76.65625 "/></g></g></g><g fill="#ffffff" fill-opacity="1"><g transform="translate(582.699789, 105.377065)"><g><path d="M 10.296875 -76.65625 L 24.53125 -76.65625 L 24.53125 0 L 10.296875 0 Z M 10.296875 -76.65625 "/></g></g></g><g fill="#ffffff" fill-opacity="1"><g transform="translate(628.478436, 105.377065)"><g><path d="M 78.40625 -76.65625 L 78.40625 0 L 66.6875 0 L 24.421875 -51.90625 L 24.421875 0 L 10.296875 0 L 10.296875 -76.65625 L 22.015625 -76.65625 L 64.28125 -24.75 L 64.28125 -76.65625 Z M 78.40625 -76.65625 "/></g></g></g><g fill="#ffffff" fill-opacity="1"><g transform="translate(728.02623, 105.377065)"><g><path d="M 36.6875 -32.09375 L 24.53125 -19.609375 L 24.53125 0 L 10.296875 0 L 10.296875 -76.65625 L 24.53125 -76.65625 L 24.53125 -37.34375 L 62.421875 -76.65625 L 78.40625 -76.65625 L 46.21875 -42.375 L 80.390625 0 L 63.734375 0 Z M 36.6875 -32.09375 "/></g></g></g></g></g><g transform="matrix(1, 0, 0, 1, 528, 1006)"><g clip-path="url(#a493b68e5f)"><g fill="#ffffff" fill-opacity="1"><g transform="translate(2.059365, 30.064892)"><g><path d="M 11.96875 -25.546875 C 13.570312 -25.546875 14.96875 -25.1875 16.15625 -24.46875 C 17.351562 -23.75 18.285156 -22.785156 18.953125 -21.578125 C 19.628906 -20.378906 19.96875 -19.0625 19.96875 -17.625 C 19.96875 -16.1875 19.617188 -14.863281 18.921875 -13.65625 C 18.234375 -12.457031 17.289062 -11.5 16.09375 -10.78125 C 14.90625 -10.0625 13.53125 -9.703125 11.96875 -9.703125 L 5.03125 -9.703125 L 5.03125 0 L 2.375 0 L 2.375 -25.546875 Z M 11.96875 -12.34375 C 13.039062 -12.34375 13.972656 -12.582031 14.765625 -13.0625 C 15.554688 -13.550781 16.164062 -14.195312 16.59375 -15 C 17.019531 -15.800781 17.234375 -16.675781 17.234375 -17.625 C 17.234375 -18.570312 17.019531 -19.445312 16.59375 -20.25 C 16.164062 -21.0625 15.5625 -21.707031 14.78125 -22.1875 C 14 -22.675781 13.0625 -22.921875 11.96875 -22.921875 L 5.03125 -22.921875 L 5.03125 -12.34375 Z M 11.96875 -12.34375 "/></g></g></g><g fill="#ffffff" fill-opacity="1"><g transform="translate(31.038134, 30.064892)"><g><path d="M 19.890625 0 L 17.125 -7.40625 L 6.78125 -7.40625 L 4.015625 0 L 1.09375 0 L 10.734375 -25.546875 L 13.140625 -25.546875 L 22.8125 0 Z M 7.78125 -10.03125 L 16.140625 -10.03125 L 11.9375 -21.359375 Z M 7.78125 -10.03125 "/></g></g></g><g fill="#ffffff" fill-opacity="1"><g transform="translate(62.49824, 30.064892)"><g><path d="M 20.40625 -25.546875 L 11.53125 -9.703125 L 11.53125 0 L 8.875 0 L 8.875 -9.671875 L 0 -25.546875 L 3.03125 -25.546875 L 10.1875 -12.734375 L 17.375 -25.546875 Z M 20.40625 -25.546875 "/></g></g></g><g fill="#ffffff" fill-opacity="1"><g transform="translate(90.45526, 30.064892)"><g><path d="M 25 -25.546875 L 27.453125 -25.546875 L 27.453125 0 L 24.78125 0 L 24.78125 -20.46875 L 15.765625 -6.390625 L 13.984375 -6.390625 L 5.03125 -20.46875 L 5.03125 0 L 2.375 0 L 2.375 -25.546875 L 4.8125 -25.546875 L 14.890625 -9.640625 Z M 25 -25.546875 "/></g></g></g><g fill="#ffffff" fill-opacity="1"><g transform="translate(127.82677, 30.064892)"><g><path d="M 4.8125 -2.625 L 19.15625 -2.625 L 19.15625 0 L 2.1875 0 L 2.1875 -25.546875 L 18.9375 -25.546875 L 18.9375 -22.921875 L 4.8125 -22.921875 L 4.8125 -14.09375 L 17.8125 -14.09375 L 17.8125 -11.46875 L 4.8125 -11.46875 Z M 4.8125 -2.625 "/></g></g></g><g fill="#ffffff" fill-opacity="1"><g transform="translate(156.367625, 30.064892)"><g><path d="M 19.15625 -25.546875 L 21.796875 -25.546875 L 21.796875 0 L 19.375 0 L 5 -20.734375 L 5 0 L 2.375 0 L 2.375 -25.546875 L 4.78125 -25.546875 L 19.15625 -4.890625 Z M 19.15625 -25.546875 "/></g></g></g><g fill="#ffffff" fill-opacity="1"><g transform="translate(188.083139, 30.064892)"><g><path d="M 19.234375 -25.546875 L 19.234375 -22.921875 L 11.3125 -22.921875 L 11.3125 0 L 8.6875 0 L 8.6875 -22.921875 L 0.734375 -22.921875 L 0.734375 -25.546875 Z M 19.234375 -25.546875 "/></g></g></g><g fill="#ffffff" fill-opacity="1"><g transform="translate(215.602283, 30.064892)"><g/></g></g><g fill="#ffffff" fill-opacity="1"><g transform="translate(233.378512, 30.064892)"><g><path d="M 11.96875 -25.546875 C 13.570312 -25.546875 14.96875 -25.1875 16.15625 -24.46875 C 17.351562 -23.75 18.285156 -22.785156 18.953125 -21.578125 C 19.628906 -20.378906 19.96875 -19.0625 19.96875 -17.625 C 19.96875 -16.1875 19.617188 -14.863281 18.921875 -13.65625 C 18.234375 -12.457031 17.289062 -11.5 16.09375 -10.78125 C 14.90625 -10.0625 13.53125 -9.703125 11.96875 -9.703125 L 5.03125 -9.703125 L 5.03125 0 L 2.375 0 L 2.375 -25.546875 Z M 11.96875 -12.34375 C 13.039062 -12.34375 13.972656 -12.582031 14.765625 -13.0625 C 15.554688 -13.550781 16.164062 -14.195312 16.59375 -15 C 17.019531 -15.800781 17.234375 -16.675781 17.234375 -17.625 C 17.234375 -18.570312 17.019531 -19.445312 16.59375 -20.25 C 16.164062 -21.0625 15.5625 -21.707031 14.78125 -22.1875 C 14 -22.675781 13.0625 -22.921875 11.96875 -22.921875 L 5.03125 -22.921875 L 5.03125 -12.34375 Z M 11.96875 -12.34375 "/></g></g></g><g fill="#ffffff" fill-opacity="1"><g transform="translate(262.357281, 30.064892)"><g><path d="M 4.8125 -2.625 L 17.515625 -2.625 L 17.515625 0 L 2.1875 0 L 2.1875 -25.546875 L 4.8125 -25.546875 Z M 4.8125 -2.625 "/></g></g></g><g fill="#ffffff" fill-opacity="1"><g transform="translate(288.161392, 30.064892)"><g><path d="M 19.890625 0 L 17.125 -7.40625 L 6.78125 -7.40625 L 4.015625 0 L 1.09375 0 L 10.734375 -25.546875 L 13.140625 -25.546875 L 22.8125 0 Z M 7.78125 -10.03125 L 16.140625 -10.03125 L 11.9375 -21.359375 Z M 7.78125 -10.03125 "/></g></g></g><g fill="#ffffff" fill-opacity="1"><g transform="translate(319.621497, 30.064892)"><g><path d="M 19.234375 -25.546875 L 19.234375 -22.921875 L 11.3125 -22.921875 L 11.3125 0 L 8.6875 0 L 8.6875 -22.921875 L 0.734375 -22.921875 L 0.734375 -25.546875 Z M 19.234375 -25.546875 "/></g></g></g><g fill="#ffffff" fill-opacity="1"><g transform="translate(347.140641, 30.064892)"><g><path d="M 18.9375 -22.921875 L 4.8125 -22.921875 L 4.8125 -14.09375 L 16.5 -14.09375 L 16.5 -11.46875 L 4.8125 -11.46875 L 4.8125 0 L 2.1875 0 L 2.1875 -25.546875 L 18.9375 -25.546875 Z M 18.9375 -22.921875 "/></g></g></g><g fill="#ffffff" fill-opacity="1"><g transform="translate(374.185401, 30.064892)"><g><path d="M 14.046875 -25.765625 C 15.847656 -25.765625 17.503906 -25.421875 19.015625 -24.734375 C 20.523438 -24.054688 21.832031 -23.117188 22.9375 -21.921875 C 24.039062 -20.734375 24.894531 -19.351562 25.5 -17.78125 C 26.113281 -16.21875 26.421875 -14.535156 26.421875 -12.734375 C 26.421875 -10.929688 26.113281 -9.242188 25.5 -7.671875 C 24.894531 -6.109375 24.039062 -4.726562 22.9375 -3.53125 C 21.832031 -2.34375 20.523438 -1.40625 19.015625 -0.71875 C 17.503906 -0.0390625 15.847656 0.296875 14.046875 0.296875 C 12.242188 0.296875 10.585938 -0.0390625 9.078125 -0.71875 C 7.578125 -1.40625 6.265625 -2.34375 5.140625 -3.53125 C 4.023438 -4.726562 3.160156 -6.109375 2.546875 -7.671875 C 1.941406 -9.242188 1.640625 -10.929688 1.640625 -12.734375 C 1.640625 -14.535156 1.941406 -16.21875 2.546875 -17.78125 C 3.160156 -19.351562 4.023438 -20.734375 5.140625 -21.921875 C 6.265625 -23.117188 7.578125 -24.054688 9.078125 -24.734375 C 10.585938 -25.421875 12.242188 -25.765625 14.046875 -25.765625 Z M 14.046875 -2.296875 C 15.972656 -2.296875 17.660156 -2.765625 19.109375 -3.703125 C 20.554688 -4.640625 21.6875 -5.898438 22.5 -7.484375 C 23.3125 -9.066406 23.71875 -10.816406 23.71875 -12.734375 C 23.71875 -14.660156 23.3125 -16.410156 22.5 -17.984375 C 21.6875 -19.566406 20.554688 -20.828125 19.109375 -21.765625 C 17.660156 -22.703125 15.972656 -23.171875 14.046875 -23.171875 C 12.128906 -23.171875 10.4375 -22.703125 8.96875 -21.765625 C 7.507812 -20.828125 6.375 -19.566406 5.5625 -17.984375 C 4.75 -16.410156 4.34375 -14.660156 4.34375 -12.734375 C 4.34375 -10.816406 4.75 -9.066406 5.5625 -7.484375 C 6.375 -5.898438 7.507812 -4.640625 8.96875 -3.703125 C 10.4375 -2.765625 12.128906 -2.296875 14.046875 -2.296875 Z M 14.046875 -2.296875 "/></g></g></g><g fill="#ffffff" fill-opacity="1"><g transform="translate(409.805406, 30.064892)"><g><path d="M 20.59375 0 L 17.5625 0 L 12.078125 -9.703125 C 12.054688 -9.703125 12.03125 -9.703125 12 -9.703125 C 11.976562 -9.703125 11.957031 -9.703125 11.9375 -9.703125 L 5 -9.703125 L 5 0 L 2.375 0 L 2.375 -25.546875 L 11.9375 -25.546875 C 13.539062 -25.546875 14.941406 -25.1875 16.140625 -24.46875 C 17.347656 -23.75 18.285156 -22.785156 18.953125 -21.578125 C 19.628906 -20.378906 19.96875 -19.0625 19.96875 -17.625 C 19.96875 -15.945312 19.5 -14.429688 18.5625 -13.078125 C 17.625 -11.734375 16.375 -10.78125 14.8125 -10.21875 Z M 5 -22.921875 L 5 -12.34375 L 11.9375 -12.34375 C 13.03125 -12.34375 13.972656 -12.582031 14.765625 -13.0625 C 15.554688 -13.550781 16.164062 -14.195312 16.59375 -15 C 17.019531 -15.800781 17.234375 -16.675781 17.234375 -17.625 C 17.234375 -18.570312 17.019531 -19.445312 16.59375 -20.25 C 16.164062 -21.0625 15.554688 -21.707031 14.765625 -22.1875 C 13.972656 -22.675781 13.03125 -22.921875 11.9375 -22.921875 Z M 5 -22.921875 "/></g></g></g><g fill="#ffffff" fill-opacity="1"><g transform="translate(438.966604, 30.064892)"><g><path d="M 25 -25.546875 L 27.453125 -25.546875 L 27.453125 0 L 24.78125 0 L 24.78125 -20.46875 L 15.765625 -6.390625 L 13.984375 -6.390625 L 5.03125 -20.46875 L 5.03125 0 L 2.375 0 L 2.375 -25.546875 L 4.8125 -25.546875 L 14.890625 -9.640625 Z M 25 -25.546875 "/></g></g></g></g></g></svg>