<svg xmlns="http://www.w3.org/2000/svg" xmlns:xlink="http://www.w3.org/1999/xlink" width="2000" zoomAndPan="magnify" viewBox="0 0 1500 1499.999933" height="2000" preserveAspectRatio="xMidYMid meet" version="1.0"><defs><g/><clipPath id="2eccd6526f"><path d="M 598.394531 452.648438 L 901.394531 452.648438 L 901.394531 785.648438 L 598.394531 785.648438 Z M 598.394531 452.648438 " clip-rule="nonzero"/></clipPath><clipPath id="2da69f6a1d"><rect x="0" width="823" y="0" height="133"/></clipPath><clipPath id="8becc8413c"><rect x="0" width="478" y="0" height="43"/></clipPath></defs><g clip-path="url(#2eccd6526f)"><path fill="#050a30" d="M 781.9375 785.363281 L 718.058594 785.363281 L 718.058594 734.261719 L 781.929688 734.261719 C 819.605469 734.261719 850.253906 703.621094 850.253906 665.945312 C 850.253906 628.269531 819.605469 597.613281 781.929688 597.613281 L 713.609375 597.613281 C 699.496094 597.613281 688.0625 586.171875 688.0625 572.066406 L 688.0625 546.519531 L 781.9375 546.519531 C 807.253906 546.519531 830.707031 554.496094 850.046875 567.988281 C 847.925781 532.167969 818.289062 503.746094 781.9375 503.746094 L 718.058594 503.746094 C 680.382812 503.746094 649.734375 534.398438 649.734375 572.074219 C 649.734375 609.75 680.382812 640.40625 718.058594 640.40625 L 786.378906 640.40625 C 800.492188 640.40625 811.925781 651.847656 811.925781 665.953125 L 811.925781 691.5 L 718.066406 691.5 C 692.746094 691.5 669.289062 683.523438 649.949219 670.03125 C 652.070312 705.851562 681.707031 734.269531 718.066406 734.269531 L 718.066406 785.363281 C 674.386719 785.363281 636.109375 761.792969 615.289062 726.699219 C 600.21875 701.304688 616.667969 669.554688 644.933594 666.269531 C 616.824219 644.40625 598.640625 610.355469 598.640625 572.066406 C 598.640625 506.21875 652.214844 452.648438 718.066406 452.648438 L 781.941406 452.648438 C 825.625 452.648438 863.898438 476.21875 884.71875 511.308594 C 899.785156 536.707031 883.335938 568.457031 855.070312 571.742188 C 883.171875 593.609375 901.355469 627.664062 901.355469 665.953125 C 901.355469 731.796875 847.789062 785.363281 781.9375 785.363281 Z M 781.9375 785.363281 " fill-opacity="1" fill-rule="nonzero"/></g><g transform="matrix(1, 0, 0, 1, 344, 859)"><g clip-path="url(#2da69f6a1d)"><g fill="#050a30" fill-opacity="1"><g transform="translate(3.115471, 102.33935)"><g><path d="M 34.0625 1.09375 C 28.144531 1.09375 22.429688 0.253906 16.921875 -1.421875 C 11.410156 -3.097656 7.046875 -5.328125 3.828125 -8.109375 L 8.765625 -19.171875 C 11.898438 -16.679688 15.75 -14.648438 20.3125 -13.078125 C 24.875 -11.515625 29.457031 -10.734375 34.0625 -10.734375 C 39.757812 -10.734375 44.015625 -11.644531 46.828125 -13.46875 C 49.640625 -15.289062 51.046875 -17.703125 51.046875 -20.703125 C 51.046875 -22.890625 50.257812 -24.695312 48.6875 -26.125 C 47.113281 -27.550781 45.125 -28.664062 42.71875 -29.46875 C 40.3125 -30.269531 37.023438 -31.179688 32.859375 -32.203125 C 27.015625 -33.585938 22.285156 -34.972656 18.671875 -36.359375 C 15.054688 -37.753906 11.953125 -39.925781 9.359375 -42.875 C 6.765625 -45.832031 5.46875 -49.832031 5.46875 -54.875 C 5.46875 -59.113281 6.617188 -62.96875 8.921875 -66.4375 C 11.222656 -69.90625 14.691406 -72.660156 19.328125 -74.703125 C 23.960938 -76.742188 29.640625 -77.765625 36.359375 -77.765625 C 41.035156 -77.765625 45.632812 -77.179688 50.15625 -76.015625 C 54.6875 -74.847656 58.597656 -73.164062 61.890625 -70.96875 L 57.390625 -59.90625 C 54.035156 -61.882812 50.53125 -63.382812 46.875 -64.40625 C 43.226562 -65.425781 39.6875 -65.9375 36.25 -65.9375 C 30.632812 -65.9375 26.457031 -64.984375 23.71875 -63.078125 C 20.976562 -61.179688 19.609375 -58.664062 19.609375 -55.53125 C 19.609375 -53.34375 20.390625 -51.550781 21.953125 -50.15625 C 23.523438 -48.769531 25.515625 -47.675781 27.921875 -46.875 C 30.335938 -46.070312 33.625 -45.160156 37.78125 -44.140625 C 43.476562 -42.828125 48.148438 -41.457031 51.796875 -40.03125 C 55.453125 -38.601562 58.578125 -36.429688 61.171875 -33.515625 C 63.765625 -30.597656 65.0625 -26.65625 65.0625 -21.6875 C 65.0625 -17.445312 63.910156 -13.609375 61.609375 -10.171875 C 59.304688 -6.742188 55.816406 -4.007812 51.140625 -1.96875 C 46.472656 0.0703125 40.78125 1.09375 34.0625 1.09375 Z M 34.0625 1.09375 "/></g></g></g><g fill="#050a30" fill-opacity="1"><g transform="translate(82.836061, 102.33935)"><g><path d="M 25.84375 -64.625 L 0.4375 -64.625 L 0.4375 -76.671875 L 65.5 -76.671875 L 65.5 -64.625 L 40.09375 -64.625 L 40.09375 0 L 25.84375 0 Z M 25.84375 -64.625 "/></g></g></g><g fill="#050a30" fill-opacity="1"><g transform="translate(159.600183, 102.33935)"><g><path d="M 60.015625 -17.75 L 21.6875 -17.75 L 14.125 0 L -0.546875 0 L 33.953125 -76.671875 L 47.96875 -76.671875 L 82.59375 0 L 67.6875 0 Z M 55.3125 -28.921875 L 40.859375 -62.4375 L 26.5 -28.921875 Z M 55.3125 -28.921875 "/></g></g></g><g fill="#050a30" fill-opacity="1"><g transform="translate(252.460786, 102.33935)"><g><path d="M 64.625 -39.875 C 68.851562 -38.476562 72.207031 -36.15625 74.6875 -32.90625 C 77.175781 -29.664062 78.421875 -25.632812 78.421875 -20.8125 C 78.421875 -14.164062 75.863281 -9.035156 70.75 -5.421875 C 65.644531 -1.804688 58.195312 0 48.40625 0 L 10.296875 0 L 10.296875 -76.671875 L 46.21875 -76.671875 C 55.269531 -76.671875 62.242188 -74.898438 67.140625 -71.359375 C 72.035156 -67.816406 74.484375 -62.941406 74.484375 -56.734375 C 74.484375 -52.941406 73.601562 -49.582031 71.84375 -46.65625 C 70.09375 -43.738281 67.6875 -41.476562 64.625 -39.875 Z M 24.53125 -65.5 L 24.53125 -44.359375 L 44.6875 -44.359375 C 49.65625 -44.359375 53.46875 -45.253906 56.125 -47.046875 C 58.789062 -48.835938 60.125 -51.445312 60.125 -54.875 C 60.125 -58.375 58.789062 -61.019531 56.125 -62.8125 C 53.46875 -64.601562 49.65625 -65.5 44.6875 -65.5 Z M 47.53125 -11.171875 C 58.5625 -11.171875 64.078125 -14.859375 64.078125 -22.234375 C 64.078125 -29.609375 58.5625 -33.296875 47.53125 -33.296875 L 24.53125 -33.296875 L 24.53125 -11.171875 Z M 47.53125 -11.171875 "/></g></g></g><g fill="#050a30" fill-opacity="1"><g transform="translate(346.635401, 102.33935)"><g><path d="M 10.296875 -76.671875 L 24.53125 -76.671875 L 24.53125 -12.046875 L 64.625 -12.046875 L 64.625 0 L 10.296875 0 Z M 10.296875 -76.671875 "/></g></g></g><g fill="#050a30" fill-opacity="1"><g transform="translate(423.070987, 102.33935)"><g><path d="M 67.796875 -11.9375 L 67.796875 0 L 10.296875 0 L 10.296875 -76.671875 L 66.265625 -76.671875 L 66.265625 -64.734375 L 24.53125 -64.734375 L 24.53125 -44.796875 L 61.5625 -44.796875 L 61.5625 -33.078125 L 24.53125 -33.078125 L 24.53125 -11.9375 Z M 67.796875 -11.9375 "/></g></g></g><g fill="#050a30" fill-opacity="1"><g transform="translate(507.281094, 102.33935)"><g><path d="M 10.296875 -76.671875 L 24.53125 -76.671875 L 24.53125 -12.046875 L 64.625 -12.046875 L 64.625 0 L 10.296875 0 Z M 10.296875 -76.671875 "/></g></g></g><g fill="#050a30" fill-opacity="1"><g transform="translate(583.71668, 102.33935)"><g><path d="M 10.296875 -76.671875 L 24.53125 -76.671875 L 24.53125 0 L 10.296875 0 Z M 10.296875 -76.671875 "/></g></g></g><g fill="#050a30" fill-opacity="1"><g transform="translate(629.492311, 102.33935)"><g><path d="M 78.421875 -76.671875 L 78.421875 0 L 66.703125 0 L 24.421875 -51.921875 L 24.421875 0 L 10.296875 0 L 10.296875 -76.671875 L 22.015625 -76.671875 L 64.296875 -24.75 L 64.296875 -76.671875 Z M 78.421875 -76.671875 "/></g></g></g><g fill="#050a30" fill-opacity="1"><g transform="translate(729.032417, 102.33935)"><g><path d="M 36.6875 -32.09375 L 24.53125 -19.609375 L 24.53125 0 L 10.296875 0 L 10.296875 -76.671875 L 24.53125 -76.671875 L 24.53125 -37.34375 L 62.4375 -76.671875 L 78.421875 -76.671875 L 46.21875 -42.390625 L 80.390625 0 L 63.75 0 Z M 36.6875 -32.09375 "/></g></g></g></g></g><g transform="matrix(1, 0, 0, 1, 527, 1004)"><g clip-path="url(#8becc8413c)"><g fill="#050a30" fill-opacity="1"><g transform="translate(3.116218, 33.208523)"><g><path d="M 11.984375 -25.5625 C 13.585938 -25.5625 14.984375 -25.203125 16.171875 -24.484375 C 17.367188 -23.765625 18.300781 -22.800781 18.96875 -21.59375 C 19.632812 -20.394531 19.96875 -19.078125 19.96875 -17.640625 C 19.96875 -16.203125 19.617188 -14.878906 18.921875 -13.671875 C 18.234375 -12.472656 17.289062 -11.515625 16.09375 -10.796875 C 14.90625 -10.078125 13.535156 -9.71875 11.984375 -9.71875 L 5.046875 -9.71875 L 5.046875 0 L 2.375 0 L 2.375 -25.5625 Z M 11.984375 -12.34375 C 13.046875 -12.34375 13.972656 -12.582031 14.765625 -13.0625 C 15.554688 -13.550781 16.164062 -14.195312 16.59375 -15 C 17.019531 -15.8125 17.234375 -16.691406 17.234375 -17.640625 C 17.234375 -18.585938 17.019531 -19.460938 16.59375 -20.265625 C 16.164062 -21.066406 15.5625 -21.710938 14.78125 -22.203125 C 14.007812 -22.691406 13.078125 -22.9375 11.984375 -22.9375 L 5.046875 -22.9375 L 5.046875 -12.34375 Z M 11.984375 -12.34375 "/></g></g></g><g fill="#050a30" fill-opacity="1"><g transform="translate(32.082311, 33.208523)"><g><path d="M 19.90625 0 L 17.125 -7.40625 L 6.796875 -7.40625 L 4.015625 0 L 1.09375 0 L 10.734375 -25.5625 L 13.140625 -25.5625 L 22.828125 0 Z M 7.78125 -10.046875 L 16.140625 -10.046875 L 11.9375 -21.359375 Z M 7.78125 -10.046875 "/></g></g></g><g fill="#050a30" fill-opacity="1"><g transform="translate(63.528292, 33.208523)"><g><path d="M 20.40625 -25.5625 L 11.53125 -9.71875 L 11.53125 0 L 8.875 0 L 8.875 -9.671875 L 0 -25.5625 L 3.03125 -25.5625 L 10.1875 -12.75 L 17.375 -25.5625 Z M 20.40625 -25.5625 "/></g></g></g><g fill="#050a30" fill-opacity="1"><g transform="translate(91.473297, 33.208523)"><g><path d="M 25.015625 -25.5625 L 27.453125 -25.5625 L 27.453125 0 L 24.796875 0 L 24.796875 -20.484375 L 15.78125 -6.390625 L 13.984375 -6.390625 L 5.046875 -20.484375 L 5.046875 0 L 2.375 0 L 2.375 -25.5625 L 4.8125 -25.5625 L 14.890625 -9.640625 Z M 25.015625 -25.5625 "/></g></g></g><g fill="#050a30" fill-opacity="1"><g transform="translate(128.827221, 33.208523)"><g><path d="M 4.8125 -2.625 L 19.171875 -2.625 L 19.171875 0 L 2.1875 0 L 2.1875 -25.5625 L 18.953125 -25.5625 L 18.953125 -22.9375 L 4.8125 -22.9375 L 4.8125 -14.09375 L 17.8125 -14.09375 L 17.8125 -11.46875 L 4.8125 -11.46875 Z M 4.8125 -2.625 "/></g></g></g><g fill="#050a30" fill-opacity="1"><g transform="translate(157.355692, 33.208523)"><g><path d="M 19.171875 -25.5625 L 21.796875 -25.5625 L 21.796875 0 L 19.390625 0 L 5 -20.734375 L 5 0 L 2.375 0 L 2.375 -25.5625 L 4.78125 -25.5625 L 19.171875 -4.890625 Z M 19.171875 -25.5625 "/></g></g></g><g fill="#050a30" fill-opacity="1"><g transform="translate(189.056968, 33.208523)"><g><path d="M 19.25 -25.5625 L 19.25 -22.9375 L 11.3125 -22.9375 L 11.3125 0 L 8.6875 0 L 8.6875 -22.9375 L 0.734375 -22.9375 L 0.734375 -25.5625 Z M 19.25 -25.5625 "/></g></g></g><g fill="#050a30" fill-opacity="1"><g transform="translate(216.56435, 33.208523)"><g/></g></g><g fill="#050a30" fill-opacity="1"><g transform="translate(234.334552, 33.208523)"><g><path d="M 11.984375 -25.5625 C 13.585938 -25.5625 14.984375 -25.203125 16.171875 -24.484375 C 17.367188 -23.765625 18.300781 -22.800781 18.96875 -21.59375 C 19.632812 -20.394531 19.96875 -19.078125 19.96875 -17.640625 C 19.96875 -16.203125 19.617188 -14.878906 18.921875 -13.671875 C 18.234375 -12.472656 17.289062 -11.515625 16.09375 -10.796875 C 14.90625 -10.078125 13.535156 -9.71875 11.984375 -9.71875 L 5.046875 -9.71875 L 5.046875 0 L 2.375 0 L 2.375 -25.5625 Z M 11.984375 -12.34375 C 13.046875 -12.34375 13.972656 -12.582031 14.765625 -13.0625 C 15.554688 -13.550781 16.164062 -14.195312 16.59375 -15 C 17.019531 -15.8125 17.234375 -16.691406 17.234375 -17.640625 C 17.234375 -18.585938 17.019531 -19.460938 16.59375 -20.265625 C 16.164062 -21.066406 15.5625 -21.710938 14.78125 -22.203125 C 14.007812 -22.691406 13.078125 -22.9375 11.984375 -22.9375 L 5.046875 -22.9375 L 5.046875 -12.34375 Z M 11.984375 -12.34375 "/></g></g></g><g fill="#050a30" fill-opacity="1"><g transform="translate(263.300644, 33.208523)"><g><path d="M 4.8125 -2.625 L 17.53125 -2.625 L 17.53125 0 L 2.1875 0 L 2.1875 -25.5625 L 4.8125 -25.5625 Z M 4.8125 -2.625 "/></g></g></g><g fill="#050a30" fill-opacity="1"><g transform="translate(289.093977, 33.208523)"><g><path d="M 19.90625 0 L 17.125 -7.40625 L 6.796875 -7.40625 L 4.015625 0 L 1.09375 0 L 10.734375 -25.5625 L 13.140625 -25.5625 L 22.828125 0 Z M 7.78125 -10.046875 L 16.140625 -10.046875 L 11.9375 -21.359375 Z M 7.78125 -10.046875 "/></g></g></g><g fill="#050a30" fill-opacity="1"><g transform="translate(320.539958, 33.208523)"><g><path d="M 19.25 -25.5625 L 19.25 -22.9375 L 11.3125 -22.9375 L 11.3125 0 L 8.6875 0 L 8.6875 -22.9375 L 0.734375 -22.9375 L 0.734375 -25.5625 Z M 19.25 -25.5625 "/></g></g></g><g fill="#050a30" fill-opacity="1"><g transform="translate(348.047341, 33.208523)"><g><path d="M 18.953125 -22.9375 L 4.8125 -22.9375 L 4.8125 -14.09375 L 16.5 -14.09375 L 16.5 -11.46875 L 4.8125 -11.46875 L 4.8125 0 L 2.1875 0 L 2.1875 -25.5625 L 18.953125 -25.5625 Z M 18.953125 -22.9375 "/></g></g></g><g fill="#050a30" fill-opacity="1"><g transform="translate(375.080618, 33.208523)"><g><path d="M 14.0625 -25.78125 C 15.863281 -25.78125 17.515625 -25.4375 19.015625 -24.75 C 20.523438 -24.070312 21.832031 -23.132812 22.9375 -21.9375 C 24.050781 -20.75 24.910156 -19.367188 25.515625 -17.796875 C 26.128906 -16.234375 26.4375 -14.550781 26.4375 -12.75 C 26.4375 -10.945312 26.128906 -9.257812 25.515625 -7.6875 C 24.910156 -6.113281 24.050781 -4.726562 22.9375 -3.53125 C 21.832031 -2.34375 20.523438 -1.40625 19.015625 -0.71875 C 17.515625 -0.0390625 15.863281 0.296875 14.0625 0.296875 C 12.257812 0.296875 10.601562 -0.0390625 9.09375 -0.71875 C 7.582031 -1.40625 6.265625 -2.34375 5.140625 -3.53125 C 4.023438 -4.726562 3.160156 -6.113281 2.546875 -7.6875 C 1.941406 -9.257812 1.640625 -10.945312 1.640625 -12.75 C 1.640625 -14.550781 1.941406 -16.234375 2.546875 -17.796875 C 3.160156 -19.367188 4.023438 -20.75 5.140625 -21.9375 C 6.265625 -23.132812 7.582031 -24.070312 9.09375 -24.75 C 10.601562 -25.4375 12.257812 -25.78125 14.0625 -25.78125 Z M 14.0625 -2.296875 C 15.976562 -2.296875 17.660156 -2.765625 19.109375 -3.703125 C 20.554688 -4.640625 21.6875 -5.898438 22.5 -7.484375 C 23.320312 -9.066406 23.734375 -10.820312 23.734375 -12.75 C 23.734375 -14.664062 23.320312 -16.414062 22.5 -18 C 21.6875 -19.582031 20.554688 -20.84375 19.109375 -21.78125 C 17.660156 -22.71875 15.976562 -23.1875 14.0625 -23.1875 C 12.132812 -23.1875 10.441406 -22.71875 8.984375 -21.78125 C 7.523438 -20.84375 6.382812 -19.582031 5.5625 -18 C 4.75 -16.414062 4.34375 -14.664062 4.34375 -12.75 C 4.34375 -10.820312 4.75 -9.066406 5.5625 -7.484375 C 6.382812 -5.898438 7.523438 -4.640625 8.984375 -3.703125 C 10.441406 -2.765625 12.132812 -2.296875 14.0625 -2.296875 Z M 14.0625 -2.296875 "/></g></g></g><g fill="#050a30" fill-opacity="1"><g transform="translate(410.684054, 33.208523)"><g><path d="M 20.59375 0 L 17.5625 0 L 12.09375 -9.71875 C 12.0625 -9.71875 12.035156 -9.71875 12.015625 -9.71875 C 11.992188 -9.71875 11.96875 -9.71875 11.9375 -9.71875 L 5 -9.71875 L 5 0 L 2.375 0 L 2.375 -25.5625 L 11.9375 -25.5625 C 13.539062 -25.5625 14.945312 -25.203125 16.15625 -24.484375 C 17.363281 -23.765625 18.300781 -22.800781 18.96875 -21.59375 C 19.632812 -20.394531 19.96875 -19.078125 19.96875 -17.640625 C 19.96875 -15.960938 19.5 -14.445312 18.5625 -13.09375 C 17.625 -11.738281 16.378906 -10.78125 14.828125 -10.21875 Z M 5 -22.9375 L 5 -12.34375 L 11.9375 -12.34375 C 13.03125 -12.34375 13.972656 -12.582031 14.765625 -13.0625 C 15.554688 -13.550781 16.164062 -14.195312 16.59375 -15 C 17.019531 -15.8125 17.234375 -16.691406 17.234375 -17.640625 C 17.234375 -18.585938 17.019531 -19.460938 16.59375 -20.265625 C 16.164062 -21.066406 15.554688 -21.710938 14.765625 -22.203125 C 13.972656 -22.691406 13.03125 -22.9375 11.9375 -22.9375 Z M 5 -22.9375 "/></g></g></g><g fill="#050a30" fill-opacity="1"><g transform="translate(439.832519, 33.208523)"><g><path d="M 25.015625 -25.5625 L 27.453125 -25.5625 L 27.453125 0 L 24.796875 0 L 24.796875 -20.484375 L 15.78125 -6.390625 L 13.984375 -6.390625 L 5.046875 -20.484375 L 5.046875 0 L 2.375 0 L 2.375 -25.5625 L 4.8125 -25.5625 L 14.890625 -9.640625 Z M 25.015625 -25.5625 "/></g></g></g></g></g></svg>